<?xml version="1.0" encoding="UTF-8"?>
<svg width="16px" height="16px" viewBox="0 0 16 16" version="1.1" xmlns="http://www.w3.org/2000/svg" xmlns:xlink="http://www.w3.org/1999/xlink">
    <!-- Generator: Sketch 48.2 (47327) - http://www.bohemiancoding.com/sketch -->
    <title>ico-close</title>
    <desc>Created with Sketch.</desc>
    <defs></defs>
    <g id="Menú-Close" stroke="none" stroke-width="1" fill="none" fill-rule="evenodd" transform="translate(-14.000000, -14.000000)">
        <g id="menu" fill="#FFFFFF" fill-rule="nonzero">
            <path d="M15.3333333,30 C14.9333333,30 14.6666667,29.8666667 14.4,29.6 C13.8666667,29.0666667 13.8666667,28.2666667 14.4,27.7333333 L20.1333333,22 L14.5333333,16.2666667 C14,15.7333333 14,14.9333333 14.5333333,14.4 C15.0666667,13.8666667 15.8666667,13.8666667 16.4,14.4 L22,20.1333333 L27.7333333,14.4 C28.2666667,13.8666667 29.0666667,13.8666667 29.6,14.4 C30.1333333,14.9333333 30.1333333,15.7333333 29.6,16.2666667 L23.8666667,22 L29.6,27.7333333 C30.1333333,28.2666667 30.1333333,29.0666667 29.6,29.6 C29.0666667,30.1333333 28.2666667,30.1333333 27.7333333,29.6 L22,23.8666667 L16.2666667,29.6 C16,29.8666667 15.7333333,30 15.3333333,30 Z" id="ico-close"></path>
        </g>
    </g>
</svg>